# xmcd CD database file
#
# Track frame offsets:
#	150
#	14986
#	28532
#	39106
#	53142
#	65440
#	76138
#	88062
#	98260
#	109536
#	122236
#	132926
#	147495
#	163706
#	182746
#	194609
#	206625
#	218998
#	232542
#	246102
#
# Disc length: 3434 seconds
#
# Revision: 0
# Processed by: cddbd v1.5.2PL0 Copyright (c) Steve Scherf et al.
# Submitted via: CDex 1.51
#
DISCID=100d6814
DTITLE=Louis Armstrong - The Best of Satchmo
DYEAR=1900
DGENRE=Blues
TTITLE0=I Will Wait For You
TTITLE1=Tin Roof Blues
TTITLE2=What A Wonderful World
TTITLE3=Bye'N'Bye
TTITLE4=Short But Sweet
TTITLE5=Mame
TTITLE6=The Circle Of Yours Arms
TTITLE7=So Long Dearie
TTITLE8=Cheescake
TTITLE9=Tyree's Blues
TTITLE10=Pretty Little Missy
TTITLE11=When The Saints Go Marchin' In
TTITLE12=I Can't Give You Anything But Love
TTITLE13=If I Could Be With You
TTITLE14=Honey, Do!
TTITLE15=Swing You Cats
TTITLE16=Mighty River
TTITLE17=Do You Know What I Means To Miss New Orleans
TTITLE18=Jack - Armstrong Blues
TTITLE19=I Wonder, I Wonder, I Wonder
EXTD=
EXTT0=
EXTT1=
EXTT2=
EXTT3=
EXTT4=
EXTT5=
EXTT6=
EXTT7=
EXTT8=
EXTT9=
EXTT10=
EXTT11=
EXTT12=
EXTT13=
EXTT14=
EXTT15=
EXTT16=
EXTT17=
EXTT18=
EXTT19=
PLAYORDER=
